Coordinates
version=1
nRows=7
nColumns=40
inDegrees=yes

Units are S.I. units (second, meters, Newtons, ...)
Angles are in degrees.

endheader
time	pelvis_tilt	pelvis_list	pelvis_rotation	pelvis_tx	pelvis_ty	pelvis_tz	hip_flexion_r	hip_adduction_r	hip_rotation_r	knee_angle_r	knee_angle_r_beta	ankle_angle_r	subtalar_angle_r	mtp_angle_r	hip_flexion_l	hip_adduction_l	hip_rotation_l	knee_angle_l	knee_angle_l_beta	ankle_angle_l	subtalar_angle_l	mtp_angle_l	lumbar_extension	lumbar_bending	lumbar_rotation	arm_flex_r	arm_add_r	arm_rot_r	elbow_flex_r	pro_sup_r	wrist_flex_r	wrist_dev_r	arm_flex_l	arm_add_l	arm_rot_l	elbow_flex_l	pro_sup_l	wrist_flex_l	wrist_dev_l
     20.00000000	     -5.97061436	     -2.86962787	      2.10374978	      1.02710645	      0.92005161	      0.43077541	     32.57849657	     -6.06756900	    -15.15562122	     20.41359755	     20.41359755	      2.35896531	     -2.96229706	      8.18728066	      2.51334486	     -5.00250184	     -9.89540314	     13.37484302	     13.37484302	     17.74928248	     -5.35502567	     -3.20822225	    -12.58722050	      3.86637795	      3.64536426	     -9.78592791	    -13.81477604	     -9.63503664	     25.43720304	     46.76614011	      0.00000000	      0.00000000	     25.72605037	    -21.76693223	     -0.12989236	    101.92069117	     48.17566447	      0.00000000	      0.00000000
     20.01157143	     -5.81339193	     -2.51795692	      2.39137004	      1.02977362	      0.91820493	      0.43215905	     31.27572244	     -6.07540420	    -15.73437679	     18.27905668	     18.27905668	      2.33658796	     -1.59790747	      8.46486551	      1.33678269	     -4.71352253	     -9.69925441	     12.87369190	     12.87369190	     18.24247994	     -5.04464510	     -3.10850964	    -12.51898215	      3.53655570	      3.63870159	    -11.17203422	    -13.42353958	     -9.43446566	     25.24579464	     46.73880633	      0.00000000	      0.00000000	     26.03010952	    -21.78616315	     -0.03259143	    103.27134128	     48.21005125	      0.00000000	      0.00000000
     20.02314286	     -5.60578051	     -2.17383367	      2.68179197	      1.03257650	      0.91652330	      0.43358674	     30.17693082	     -6.19403417	    -16.34179407	     17.10259149	     17.10259149	      2.26446651	     -0.35502515	      8.03068632	      0.11272657	     -4.43530388	     -9.39705030	     12.41039916	     12.41039916	     18.80296212	     -4.88116634	     -2.54233229	    -12.55107976	      3.24105990	      3.60987126	    -12.58220496	    -13.07974585	     -9.17684207	     25.53679548	     46.68293222	      0.00000000	      0.00000000	     26.06240146	    -21.81061806	      0.11593524	    104.89877750	     48.25010240	      0.00000000	      0.00000000
     20.03471429	     -5.64494452	     -1.92992700	      2.91994253	      1.03496633	      0.91457838	      0.43538590	     29.75905340	     -6.23530953	    -16.35262249	     16.97270116	     16.97270116	      2.24623551	     -0.25394969	      7.96887159	     -0.52460242	     -4.35378176	     -9.16248813	     12.47817174	     12.47817174	     19.30436276	     -4.88747832	     -2.65031322	    -12.25203066	      2.98816948	      3.35341106	    -13.42633695	    -12.75568310	     -9.13543475	     25.32458141	     46.67918027	      0.00000000	      0.00000000	     26.06532483	    -21.87755186	      0.04768435	    105.14650073	     48.26083618	      0.00000000	      0.00000000
     20.04628571	     -5.28759648	     -1.65791153	      3.10011246	      1.03766506	      0.91374732	      0.43713258	     28.84142727	     -6.40607928	    -16.86214988	     17.06665668	     17.06665668	      1.78259751	      0.58676556	      6.10877854	     -1.81311920	     -4.17506636	     -8.67369086	     12.18563465	     12.18563465	     19.81625208	     -5.10096105	     -1.29678729	    -12.65227222	      2.78129858	      3.85111157	    -14.75205827	    -12.34180202	     -8.86564588	     25.77748215	     46.61692106	      0.00000000	      0.00000000	     25.84274630	    -21.48028435	      0.04617348	    107.51943961	     48.32231523	      0.00000000	      0.00000000
     20.05785714	     -5.13392332	     -1.43817601	      3.26669741	      1.04014590	      0.91281580	      0.43922873	     28.21882999	     -6.46949500	    -16.86670606	     17.32353190	     17.32353190	     -0.17274232	      0.11701619	     -0.29043209	     -2.45465485	     -4.10706686	     -7.90013530	     12.72943581	     12.72943581	     21.21036374	     -5.68352063	      2.18840717	    -12.72338324	      2.56357491	      3.22793452	    -15.72699572	    -12.27931194	     -7.79092148	     27.66356396	     46.42226031	      0.00000000	      0.00000000	     24.70507517	    -21.83575559	     -0.81827464	    109.08074391	     48.45616870	      0.00000000	      0.00000000
     20.06942857	     -4.93370798	     -1.48877992	      3.33734422	      1.04246929	      0.91250981	      0.44175881	     27.76454599	     -6.28697498	    -16.79155964	     18.23983702	     18.23983702	     -0.01220907	     -0.08564546	     -0.65487583	     -3.09384087	     -4.45476835	     -7.86342563	     13.22456756	     13.22456756	     21.28473991	     -5.92214218	      2.19211210	    -12.83030819	      2.60081259	      3.34836057	    -16.14501041	    -11.88031126	     -7.67596536	     27.47274626	     46.41679970	      0.00000000	      0.00000000	     24.20357969	    -21.63709909	     -0.78732168	    109.13365701	     48.45453915	      0.00000000	      0.00000000
